# xmcd CD database file
#
# Track frame offsets:
#	225
#	18706
#	32360
#	52214
#	66797
#	82165
#	92193
#	116785
#	152073
#	167004
#
# Disc length: 2647 seconds
#
# Revision: 0
# Processed by: cddbd v1.5.1PL0 Copyright (c) Steve Scherf et al.
# Submitted via: CDex 1.51
#
DISCID=860a540a
DTITLE=Bluespumpm - Bluespumpm
DYEAR=1979
DGENRE=Blues
TTITLE0=Call Out My Name
TTITLE1=Our Home
TTITLE2=Blues In Love
TTITLE3=Mean Old Town Blues
TTITLE4=Roll It Right
TTITLE5=Suite For Two Birds
TTITLE6=In A Better Way
TTITLE7=Same Old Blues
TTITLE8=Loneliness Blues
TTITLE9=Last Boogie
EXTD=YEAR: 1979
EXTT0=
EXTT1=
EXTT2=
EXTT3=
EXTT4=
EXTT5=
EXTT6=
EXTT7=
EXTT8=
EXTT9=
PLAYORDER=
